<svg width="93" height="68" viewBox="0 0 93 68" fill="none" xmlns="http://www.w3.org/2000/svg">
<g clip-path="url(#clip0_311_26)">
<path d="M43.2842 49.3384C42.544 49.3384 41.9443 49.7844 41.9443 50.3345C41.9443 50.8846 42.544 51.3306 43.2842 51.3306H49.7158C50.4559 51.3306 51.0557 50.8846 51.0557 50.3345C51.0557 49.7844 50.4559 49.3384 49.7158 49.3384H43.2842Z" fill="#FFB400"/>
<path d="M16.8434 33.8716H25.7003C26.2413 34.9183 27.6043 35.6646 29.2004 35.6646C30.7965 35.6646 32.1594 34.9183 32.7004 33.8716H34.4707C35.2108 33.8716 35.8106 33.4256 35.8106 32.8755C35.8106 32.3254 35.2108 31.8794 34.4707 31.8794H32.7004C32.1594 30.8327 30.7965 30.0864 29.2004 30.0864C27.6043 30.0864 26.2413 30.8327 25.7003 31.8794H16.8434C16.1032 31.8794 15.5035 32.3254 15.5035 32.8755C15.5035 33.4256 16.1032 33.8716 16.8434 33.8716ZM29.2004 32.0786C29.7915 32.0786 30.2723 32.436 30.2723 32.8755C30.2723 33.315 29.7915 33.6724 29.2004 33.6724C28.6092 33.6724 28.1284 33.315 28.1284 32.8755C28.1284 32.436 28.6092 32.0786 29.2004 32.0786Z" fill="#FFB400"/>
<path d="M16.8434 28.1606H18.5542C19.0951 29.2073 20.4581 29.9536 22.0542 29.9536C23.6503 29.9536 25.0132 29.2073 25.5542 28.1606H34.4707C35.2108 28.1606 35.8106 27.7147 35.8106 27.1646C35.8106 26.6144 35.2108 26.1685 34.4707 26.1685H25.5542C25.0132 25.1218 23.6503 24.3755 22.0542 24.3755C20.4581 24.3755 19.0951 25.1218 18.5542 26.1685H16.8434C16.1032 26.1685 15.5035 26.6144 15.5035 27.1646C15.5035 27.7147 16.1032 28.1606 16.8434 28.1606ZM22.0542 26.3677C22.6454 26.3677 23.1261 26.7251 23.1261 27.1646C23.1261 27.604 22.6454 27.9614 22.0542 27.9614C21.463 27.9614 20.9823 27.604 20.9823 27.1646C20.9823 26.7251 21.463 26.3677 22.0542 26.3677Z" fill="#FFB400"/>
<path d="M34.7386 18.9966C35.4787 18.9966 36.0786 18.5506 36.0786 18.0005C36.0786 17.4504 35.4787 17.0044 34.7386 17.0044C33.9986 17.0044 33.3987 17.4504 33.3987 18.0005C33.3987 18.5506 33.9986 18.9966 34.7386 18.9966Z" fill="#FFB400"/>
<path d="M31.0464 18.9966C31.7864 18.9966 32.3863 18.5506 32.3863 18.0005C32.3863 17.4504 31.7864 17.0044 31.0464 17.0044C30.3064 17.0044 29.7065 17.4504 29.7065 18.0005C29.7065 18.5506 30.3064 18.9966 31.0464 18.9966Z" fill="#FFB400"/>
<path d="M27.3542 18.9966C28.0942 18.9966 28.6941 18.5506 28.6941 18.0005C28.6941 17.4504 28.0942 17.0044 27.3542 17.0044C26.6141 17.0044 26.0143 17.4504 26.0143 18.0005C26.0143 18.5506 26.6141 18.9966 27.3542 18.9966Z" fill="#FFB400"/>
<path d="M88.2158 6.7048H87.7139L88.0882 6.42655C89.2093 5.59316 89.2093 4.23701 88.0882 3.40361L85.1551 1.22309C84.034 0.389828 82.2099 0.389828 81.0887 1.22309L73.7155 6.70466H4.78423C2.56785 6.70466 0.764511 8.04514 0.764511 9.69294V51.0593C0.764511 53.0732 2.96839 54.7116 5.6775 54.7116H37.4145V61.758H30.9571C29.2332 61.758 27.8306 62.8007 27.8306 64.0822V65.0775C27.8306 66.359 29.2332 67.4017 30.9571 67.4017H62.0429C63.7668 67.4017 65.1694 66.359 65.1694 65.0775V64.0822C65.1694 62.8007 63.7668 61.758 62.0429 61.758H55.5855V54.7116H69.9037C70.6439 54.7116 71.2436 54.2656 71.2436 53.7155C71.2436 53.1654 70.6439 52.7194 69.9037 52.7194H5.6775C4.44604 52.7194 3.44432 51.9747 3.44432 51.0593V48.1108H89.5557V51.0593C89.5557 51.9747 88.554 52.7194 87.3225 52.7194H76.1566C75.4164 52.7194 74.8167 53.1654 74.8167 53.7155C74.8167 54.2656 75.4164 54.7116 76.1566 54.7116H87.3225C90.0316 54.7116 92.2355 53.0732 92.2355 51.0593V9.69308C92.2355 8.04541 90.4321 6.7048 88.2158 6.7048ZM62.0429 63.7503C62.2893 63.7503 62.4896 63.8993 62.4896 64.0823V65.0776C62.4896 65.2606 62.2893 65.4096 62.0429 65.4096H30.9571C30.7107 65.4096 30.5104 65.2606 30.5104 65.0776V64.0823C30.5104 63.8993 30.7107 63.7503 30.9571 63.7503H62.0429ZM40.0943 54.7119H52.9058V61.7582H40.0943V54.7119ZM82.9837 2.63197C83.0602 2.57526 83.1841 2.57539 83.2602 2.63197L86.1932 4.81235C86.2695 4.86906 86.2695 4.96137 86.1932 5.01795L83.3946 7.09845L80.1851 4.71248L82.9837 2.63197ZM78.2901 6.12122L81.4994 8.50719L80.5649 9.20194L77.3555 6.81596L78.2901 6.12122ZM75.4606 8.2247L78.6701 10.6107L62.8143 22.3979L59.6048 20.0119L75.4606 8.2247ZM73.4768 17.3315C75.2992 17.3315 76.7819 18.4337 76.7819 19.7886C76.7819 21.1434 75.2992 22.2456 73.4768 22.2456C71.6543 22.2456 70.1717 21.1434 70.1717 19.7886C70.1717 19.7727 70.1745 19.7575 70.1749 19.7417L73.4143 17.3339C73.4352 17.3336 73.4557 17.3315 73.4768 17.3315ZM60.4876 23.4857L56.522 24.6897L58.1416 21.7417L60.4876 23.4857ZM89.5557 46.1189H3.44432V9.69308C3.44432 9.1439 4.04532 8.69698 4.78423 8.69698H71.0358L68.9927 10.2158H23.4536C22.7134 10.2158 22.1137 10.6618 22.1137 11.2119C22.1137 11.762 22.7134 12.208 23.4536 12.208H66.3131L56.8621 19.2343C56.595 19.4346 56.3862 19.6684 56.2424 19.93L53.2494 25.3774C52.9748 25.8777 53.1295 26.4479 53.6435 26.8299C53.9885 27.0863 54.4473 27.2223 54.9151 27.2223C55.1445 27.2223 55.3759 27.1897 55.5972 27.1226L62.9248 24.8977C63.2667 24.7939 63.5726 24.6435 63.837 24.4529L67.9131 21.4231C68.7912 23.0698 70.9529 24.2379 73.477 24.2379C76.7771 24.2379 79.4619 22.242 79.4619 19.7887C79.4619 17.9126 77.891 16.3057 75.6762 15.6528L80.3103 12.2081H84.8328V42.608H84.1226L79.2668 36.3556C78.897 35.879 78.077 35.7158 77.4365 35.991C76.7956 36.2661 76.5761 36.8753 76.9461 37.3517L81.0283 42.608H62.3107L60.3032 40.0231L69.662 27.9726L73.8194 33.326C74.1896 33.8024 75.0091 33.9658 75.6498 33.6906C76.2906 33.4155 76.5102 32.8063 76.1402 32.3299L71.7047 26.6188C71.2783 26.0698 70.5147 25.742 69.6618 25.742C68.8089 25.742 68.0452 26.0698 67.6187 26.6188L58.7557 38.031L47.3836 23.3883C46.9572 22.8393 46.1936 22.5115 45.3405 22.5115C44.4878 22.5115 43.7241 22.8393 43.2976 23.3883L40.2764 27.2785V16.6013C40.2764 15.3198 38.8738 14.2771 37.1499 14.2771H14.1636C12.4397 14.2771 11.0371 15.3198 11.0371 16.6013V38.3826C11.0371 39.298 12.0388 40.0427 13.2703 40.0427H30.3638L28.3714 42.6081H8.16741V12.208H17.2007C17.9409 12.208 18.5406 11.762 18.5406 11.2119C18.5406 10.6618 17.9409 10.2158 17.2007 10.2158H7.72077C6.48931 10.2158 5.48759 10.9605 5.48759 11.876V42.9399C5.48759 43.8554 6.48931 44.6001 7.72077 44.6001H85.2794C86.5109 44.6001 87.5126 43.8554 87.5126 42.9399V11.876C87.5126 10.9605 86.5109 10.2158 85.2794 10.2158H82.9905L85.0339 8.69698H88.2158C88.9547 8.69698 89.5557 9.1439 89.5557 9.69308V46.1189ZM37.5971 22.1178V38.0503H13.7169V22.1178H37.5971ZM13.7169 20.1256V16.6011C13.7169 16.418 13.9172 16.269 14.1636 16.269H37.1505C37.3969 16.269 37.5971 16.418 37.5971 16.6011V20.1256H13.7169ZM33.4582 40.0425H38.0438C39.2752 40.0425 40.2769 39.2978 40.2769 38.3823V36.2723C40.6121 36.3918 40.9853 36.4565 41.3762 36.4565C42.2909 36.4565 43.1099 36.1048 43.567 35.5161L45.8474 32.58C45.9163 32.4913 46.0217 32.4725 46.0977 32.4725C46.174 32.4725 46.2794 32.4913 46.3481 32.58L47.754 34.3901C48.2113 34.9791 49.0305 35.3307 49.9453 35.3307C50.8601 35.3307 51.6792 34.9791 52.1364 34.3902L52.4854 33.9408L59.2164 42.6077H31.4659L33.4582 40.0425ZM40.2769 32.9379V31.2626L45.3412 24.7419L50.9381 31.9486L49.9452 33.2271L48.6689 31.5838C48.1322 30.8927 47.171 30.4802 46.0975 30.4802C45.0241 30.4802 44.063 30.8927 43.5263 31.5838L41.3757 34.3529L40.2769 32.9379Z" fill="#FFB400"/>
</g>
<defs>
<clipPath id="clip0_311_26">
<rect width="91.471" height="68" fill="white" transform="translate(0.764511)"/>
</clipPath>
</defs>
</svg>
