<svg width="100" height="78" viewBox="0 0 100 78" fill="none" xmlns="http://www.w3.org/2000/svg">
<path d="M72.5803 72.9677H99.3066L92.4457 58.0584C90.6514 54.1597 86.0728 51.2686 80.4955 50.5113L62.1586 48.0203V44.9469C66.5513 42.6509 69.6518 39.1535 70.5515 35.1201C74.6507 34.6182 77.7911 32.0454 77.7911 28.9355V20.129C77.7911 9.03039 65.3233 0 50 0C34.6767 0 22.209 9.03039 22.209 20.129V28.9355C22.209 32.0416 25.3337 34.6295 29.426 35.1365C30.3292 39.1698 33.447 42.671 37.8414 44.9657V48.0216L19.5028 50.5126C13.9272 51.2699 9.34692 54.1609 7.55266 58.0597L0.693481 72.9677H27.4198V70.4516H22.6971L25.6307 61.9496L22.2611 61.3407L19.1155 70.4516H5.51176L10.8494 58.8548C12.2441 55.8228 15.8066 53.5734 20.1437 52.9834L31.2081 51.4813L34.0375 60.7004C32.1894 61.2816 30.8937 62.6126 30.8937 64.1613V74.2258C30.8937 76.3066 33.2316 78 36.1045 78H63.8956C66.7685 78 69.1064 76.3066 69.1064 74.2258V64.1613C69.1064 62.6126 67.8106 61.2816 65.9643 60.7004L68.7937 51.4813L79.858 52.9834C84.1952 53.5734 87.7559 55.8228 89.1524 58.8548L94.4883 70.4516H80.8846L77.739 61.3407L74.3693 61.9496L77.303 70.4516H72.5803V72.9677ZM65.3772 51.017L62.9785 58.8346L61.7782 55.3548H54.193L61.0018 50.4232L65.3772 51.017ZM59.9336 60.3871H40.0665L40.9349 57.871H59.0651L59.9336 60.3871ZM50 54.834L41.3153 48.5437V46.4226C43.9624 47.3057 46.8996 47.8064 50 47.8064C53.1022 47.8064 56.0376 47.2995 58.6847 46.4163V48.5437L50 54.834ZM70.8433 32.4782V25.394C72.8599 25.9149 74.3172 27.2987 74.3172 28.9367C74.3172 30.5747 72.8599 31.9574 70.8433 32.4782ZM29.1567 32.4945C27.1349 31.975 25.6829 30.576 25.6829 28.9355C25.6829 27.295 27.1349 25.896 29.1567 25.3764V32.4945ZM25.6829 23.9359V20.129C25.6829 10.4168 36.5908 2.51613 50 2.51613C63.4092 2.51613 74.3172 10.4168 74.3172 20.129V23.9359C73.2889 23.3723 72.1009 22.9559 70.7877 22.7685C70.515 21.2827 68.7746 20.129 66.6503 20.129C65.5474 20.129 64.467 20.4536 63.5985 21.0826C60.6648 23.2075 56.9478 24.5625 52.9216 25.0028L53.0327 24.8417C53.3211 24.4215 53.4739 23.9523 53.4739 23.483V23.166C53.4739 21.4915 51.5928 20.129 49.2809 20.129C48.178 20.129 47.0976 20.4536 46.316 21.0185C42.6562 23.668 37.8015 25.1374 32.6306 25.1613V22.6452H30.8937C28.9309 22.6452 27.1384 23.1371 25.6829 23.9359ZM32.6306 32.7097V27.6774C38.729 27.6535 44.4574 25.9224 48.7703 22.7986C49.1889 22.4942 50 22.742 50 23.166V23.483C50 23.5635 49.974 23.6441 49.9236 23.717L47.1897 27.6774H50C56.0654 27.6774 61.7661 25.9677 66.1397 22.7986C66.56 22.4942 67.3694 22.742 67.3694 23.166V32.7097C67.3694 39.6466 59.5775 45.2903 50 45.2903C40.4225 45.2903 32.6306 39.6466 32.6306 32.7097ZM38.9982 50.4232L45.807 55.3548H38.2218L37.0216 58.8346L34.6229 51.017L38.9982 50.4232ZM36.1045 75.4839C35.1474 75.4839 34.3676 74.9203 34.3676 74.2258V64.1613C34.3676 63.4668 35.1474 62.9032 36.1045 62.9032H41.5081C39.2484 64.5035 37.8414 66.7303 37.8414 69.1936C37.8414 71.6568 39.2484 73.8836 41.5081 75.4839H36.1045ZM50 75.4839C45.2113 75.4839 41.3153 72.662 41.3153 69.1936C41.3153 65.7251 45.2113 62.9032 50 62.9032C54.7888 62.9032 58.6847 65.7251 58.6847 69.1936C58.6847 72.662 54.7888 75.4839 50 75.4839ZM65.6325 74.2258C65.6325 74.9203 64.8526 75.4839 63.8956 75.4839H58.4919C60.7517 73.8836 62.1586 71.6568 62.1586 69.1936C62.1586 66.7303 60.7517 64.5035 58.4919 62.9032H63.8956C64.8526 62.9032 65.6325 63.4668 65.6325 64.1613V74.2258Z" fill="#FFB400"/>
</svg>
